<svg width="16" height="16" viewBox="0 0 16 16" fill="none" xmlns="http://www.w3.org/2000/svg">
<g id="linkedin 1" clip-path="url(#clip0_587171_99)">
<path id="Vector" d="M15.9961 16V15.9993H16.0001V10.1313C16.0001 7.26065 15.3821 5.04932 12.0261 5.04932C10.4128 5.04932 9.33009 5.93465 8.88809 6.77398H8.84143V5.31732H5.65942V15.9993H8.97276V10.71C8.97276 9.31732 9.23676 7.97065 10.9614 7.97065C12.6608 7.97065 12.6861 9.55998 12.6861 10.7993V16H15.9961Z" fill="#F4F4FD"/>
<path id="Vector_2" d="M0.264038 5.31793H3.58137V15.9999H0.264038V5.31793Z" fill="#F4F4FD"/>
<path id="Vector_3" d="M1.92139 -6.10352e-05C0.860728 -6.10352e-05 6.10352e-05 0.860606 6.10352e-05 1.92127C6.10352e-05 2.98194 0.860728 3.86061 1.92139 3.86061C2.98206 3.86061 3.84273 2.98194 3.84273 1.92127C3.84206 0.860606 2.98139 -6.10352e-05 1.92139 -6.10352e-05V-6.10352e-05Z" fill="#F4F4FD"/>
</g>
<defs>
<clipPath id="clip0_587171_99">
<rect width="16" height="16" fill="white"/>
</clipPath>
</defs>
</svg>
